<svg version="1.1" xmlns="http://www.w3.org/2000/svg" width="500" height="500">
<path d="M0 0 C8.11341463 6.92501212 13.30272094 13.68395074 14.578125 24.546875 C15.20825911 35.38669702 12.60673262 43.94118958 8.125 53.6875 C7.78758789 54.43789551 7.45017578 55.18829102 7.10253906 55.96142578 C2.88666147 65.29713635 -1.71493833 74.40180383 -6.57177734 83.41821289 C-9.49483986 88.87497736 -12.13896673 94.43004953 -14.72868347 100.05110168 C-17.16003681 105.27895954 -19.78027728 110.3800124 -22.49609375 115.46484375 C-27.82668372 125.52175608 -32.93068464 135.68452179 -38 145.875 C-38.85006623 147.58017495 -39.70032642 149.28525321 -40.55078125 150.99023438 C-43.34879729 156.60091328 -46.14634332 162.21183045 -48.93835449 167.82550049 C-54.53194844 179.07139529 -60.25754893 190.24586307 -66.02050781 201.40576172 C-70.44960423 209.98595405 -74.85192356 218.57659113 -79.13696289 227.2298584 C-81.63482899 232.26062612 -84.27158219 237.20732202 -86.93284607 242.15365601 C-89.31261792 246.5818794 -91.58202869 251.05747693 -93.8125 255.5625 C-96.93745112 261.87391702 -100.19312964 268.10515501 -103.51269531 274.31616211 C-106.11915406 279.21030004 -108.61261016 284.15092763 -111.0625 289.125 C-118.64106606 304.45729445 -118.64106606 304.45729445 -123.875 310.6875 C-124.535 310.6875 -125.195 310.6875 -125.875 310.6875 C-125.875 311.3475 -125.875 312.0075 -125.875 312.6875 C-126.535 312.6875 -127.195 312.6875 -127.875 312.6875 C-127.875 313.3475 -127.875 314.0075 -127.875 314.6875 C-138.11789784 320.99878049 -148.67375574 325.27333811 -160.875 323.6875 C-171.90647849 321.0267911 -181.34475714 315.01641837 -187.875 305.6875 C-193.16886627 296.06521419 -194.42417984 285.93387442 -191.6875 275.25 C-188.22499141 263.95713942 -182.9010766 253.73969299 -177.359375 243.36328125 C-174.07025624 237.20055076 -170.97059733 230.94953213 -167.875 224.6875 C-163.97347204 216.79967214 -160.04611269 208.93691313 -155.875 201.1875 C-150.47372922 191.13908323 -145.38458015 180.95314162 -140.56787109 170.61181641 C-137.05669987 163.0813779 -133.3347914 155.79233858 -129.17773438 148.59887695 C-126.52102977 143.95715197 -124.16998586 139.23380799 -121.9375 134.375 C-119.24903116 128.52690104 -116.40967889 122.80120352 -113.375 117.125 C-108.31630555 107.65432494 -103.53671229 98.05160166 -98.75634766 88.43865967 C-94.88621985 80.65990988 -90.99642827 72.89970504 -86.875 65.25 C-83.64618344 59.25459271 -80.69100282 53.16482083 -77.82006836 46.99072266 C-74.32473872 39.47632757 -70.68515504 32.04737813 -66.875 24.6875 C-66.51792969 23.99172852 -66.16085937 23.29595703 -65.79296875 22.57910156 C-58.38775261 8.28546441 -50.7626051 -1.15183821 -35.125 -6.625 C-22.76475596 -9.19174423 -10.23755064 -7.58843486 0 0 Z " fill="#131313" transform="translate(400.875,92.3125)"></path>
<path d="M0 0 C0.53753906 0.48210937 1.07507813 0.96421875 1.62890625 1.4609375 C1.62890625 2.1209375 1.62890625 2.7809375 1.62890625 3.4609375 C2.51316284 3.81828979 2.51316284 3.81828979 3.4152832 4.18286133 C10.71720137 8.39875872 14.56329542 18.90695181 17.94140625 26.2734375 C18.40796631 27.26827148 18.87452637 28.26310547 19.35522461 29.28808594 C20.78726687 32.34227098 22.20820572 35.40146387 23.62890625 38.4609375 C25.3078306 42.04835596 26.99592046 45.631318 28.69140625 49.2109375 C29.30290527 50.50294067 29.30290527 50.50294067 29.92675781 51.82104492 C33.09141338 58.45416801 36.47912231 64.95002206 39.94506836 71.4296875 C42.8815348 76.95063678 45.61171101 82.54379378 48.25390625 88.2109375 C51.21978343 94.57165707 54.33820503 100.80344029 57.68017578 106.97412109 C62.98536593 116.78148253 67.87124881 126.78668292 72.56640625 136.8984375 C75.25321439 142.68327293 78.10830397 148.34348418 81.12890625 153.9609375 C84.26824722 159.83055587 87.33711805 165.72711801 90.25390625 171.7109375 C90.60904297 172.41412109 90.96417969 173.11730469 91.33007812 173.84179688 C92.63442032 176.56424742 93.63604287 178.8298562 93.6015625 181.87890625 C92.09838544 185.86926784 90.30527389 189.69015744 88.44140625 193.5234375 C88.03865479 194.36237549 87.63590332 195.20131348 87.22094727 196.06567383 C84.09155319 202.56460883 80.90085913 209.03251243 77.62890625 215.4609375 C76.96890625 215.4609375 76.30890625 215.4609375 75.62890625 215.4609375 C75.50056396 216.03457031 75.37222168 216.60820312 75.23999023 217.19921875 C74.62431974 219.47791291 73.81630624 221.49595871 72.8515625 223.6484375 C72.50287109 224.42960938 72.15417969 225.21078125 71.79492188 226.015625 C71.43076172 226.82257813 71.06660156 227.62953125 70.69140625 228.4609375 C70.33111328 229.26789063 69.97082031 230.07484375 69.59960938 230.90625 C68.00706749 234.46087387 66.38943154 237.98576698 64.62890625 241.4609375 C63.96890625 241.4609375 63.30890625 241.4609375 62.62890625 241.4609375 C62.5110376 242.18563232 62.39316895 242.91032715 62.27172852 243.65698242 C61.61731184 246.51151166 60.67064876 248.72080978 59.34375 251.32421875 C58.89580078 252.21044922 58.44785156 253.09667969 57.98632812 254.00976562 C57.51775391 254.92177734 57.04917969 255.83378906 56.56640625 256.7734375 C56.09396484 257.70478516 55.62152344 258.63613281 55.13476562 259.59570312 C53.97152981 261.88692519 52.80277493 264.1751499 51.62890625 266.4609375 C50.63890625 266.4609375 49.64890625 266.4609375 48.62890625 266.4609375 C46.59455094 262.73128611 45.62890625 260.79188708 45.62890625 256.4609375 C44.96890625 256.4609375 44.30890625 256.4609375 43.62890625 256.4609375 C43.07203125 255.275 42.51515625 254.0890625 41.94140625 252.8671875 C35.63687882 239.47563608 29.18363007 226.19536342 22.19140625 213.1484375 C18.54201511 206.33812547 15.20279972 199.41418717 11.93603516 192.41357422 C9.04684005 186.25592203 5.92092632 180.26959197 2.67749023 174.29248047 C0.83729224 170.87308924 -0.91983757 167.41886021 -2.6484375 163.94140625 C-3.35201377 162.528831 -4.05572068 161.11632081 -4.75952148 159.70385742 C-5.16339081 158.89258392 -5.56726013 158.08131042 -5.98336792 157.24545288 C-8.53708206 152.1213454 -11.09958763 147.00162865 -13.66067696 141.88120461 C-15.34180157 138.51991571 -17.02243509 135.15838127 -18.703125 131.796875 C-19.39534276 130.41243375 -20.08756282 129.02799365 -20.77978516 127.64355469 C-24.96240234 119.27832031 -24.96240234 119.27832031 -26.00358582 117.19590759 C-26.69112849 115.82085264 -27.37871965 114.44582192 -28.06636047 113.07081604 C-29.72873386 109.74659235 -31.39032256 106.42198178 -33.05004883 103.09643555 C-35.72233005 97.74378294 -38.39774619 92.39331503 -41.12109375 87.06640625 C-41.50624146 86.309646 -41.89138916 85.55288574 -42.28820801 84.77319336 C-43.24286044 82.90112159 -44.20407013 81.03239728 -45.16601562 79.1640625 C-46.37109375 76.4609375 -46.37109375 76.4609375 -46.37109375 73.4609375 C-47.03109375 73.4609375 -47.69109375 73.4609375 -48.37109375 73.4609375 C-50.19209263 69.46185862 -52.00662122 65.45992448 -53.81542969 61.45532227 C-54.43055751 60.09581233 -55.04739029 58.7370724 -55.66601562 57.37915039 C-56.55927962 55.41757146 -57.4462017 53.45322674 -58.33203125 51.48828125 C-58.86618652 50.30999756 -59.4003418 49.13171387 -59.95068359 47.91772461 C-63.98280862 38.10492669 -65.31060906 27.65210197 -61.34375 17.578125 C-56.18139821 6.34119861 -50.14802089 -0.98082414 -38.37109375 -5.5390625 C-25.56321356 -9.71825717 -11.24861954 -7.30141038 0 0 Z " fill="#484949" transform="translate(148.37109375,92.5390625)"></path>
<path d="M0 0 C4.10084831 3.5815269 7.60618625 6.98513993 10.05859375 11.90625 C9.24609375 14.21875 9.24609375 14.21875 8.05859375 15.90625 C7.39859375 14.91625 6.73859375 13.92625 6.05859375 12.90625 C6.38859375 12.24625 6.71859375 11.58625 7.05859375 10.90625 C4.74859375 9.58625 2.43859375 8.26625 0.05859375 6.90625 C0.05859375 5.91625 0.05859375 4.92625 0.05859375 3.90625 C-0.93140625 3.90625 -1.92140625 3.90625 -2.94140625 3.90625 C-2.94140625 4.56625 -2.94140625 5.22625 -2.94140625 5.90625 C-3.60140625 5.90625 -4.26140625 5.90625 -4.94140625 5.90625 C-4.61140625 4.58625 -4.28140625 3.26625 -3.94140625 1.90625 C-7.99102622 0.93986342 -11.78343032 0.77228884 -15.94140625 0.78125 C-17.13765625 0.77867188 -18.33390625 0.77609375 -19.56640625 0.7734375 C-27.38442551 1.08109104 -36.41889253 3.08522203 -41.94140625 8.90625 C-47.56706072 16.89770537 -49.12670909 23.03259341 -49.00390625 32.78125 C-48.99713867 33.81378906 -48.99713867 33.81378906 -48.99023438 34.8671875 C-48.97856961 36.54691335 -48.96063896 38.22659375 -48.94140625 39.90625 C-48.28140625 39.90625 -47.62140625 39.90625 -46.94140625 39.90625 C-46.85890625 40.7725 -46.77640625 41.63875 -46.69140625 42.53125 C-46.1287894 46.0446011 -46.1287894 46.0446011 -43.81640625 49.03125 C-41.94140625 51.90625 -41.94140625 51.90625 -42.19140625 54.28125 C-42.43890625 54.8175 -42.68640625 55.35375 -42.94140625 55.90625 C-51.54829744 45.16645574 -54.11467501 32.34686046 -52.94140625 18.90625 C-51.14222352 10.4490138 -47.12669495 3.8362765 -40.21484375 -1.40234375 C-28.3025698 -8.82711724 -11.35759395 -8.08455558 0 0 Z " fill="#F8F8F9" transform="translate(144.94140625,97.09375)"></path>
<path d="M0 0 C2.3359375 2.140625 2.3359375 2.140625 4 4 C2.82421875 5.55078125 2.82421875 5.55078125 1 7 C-1.48046875 6.85546875 -1.48046875 6.85546875 -4.1875 6.1875 C-5.08855469 5.97480469 -5.98960937 5.76210937 -6.91796875 5.54296875 C-7.60503906 5.36378906 -8.29210937 5.18460938 -9 5 C-9 4.34 -9 3.68 -9 3 C-9.66 3 -10.32 3 -11 3 C-11 3.66 -11 4.32 -11 5 C-11.99 4.67 -12.98 4.34 -14 4 C-20.65432824 2.41563613 -27.06128634 2.63670597 -33.0625 6.0625 C-34.031875 6.701875 -35.00125 7.34125 -36 8 C-36 9.65 -36 11.3 -36 13 C-37.093125 12.814375 -38.18625 12.62875 -39.3125 12.4375 C-42.93624133 11.7421932 -42.93624133 11.7421932 -46 13 C-45.67 13.99 -45.34 14.98 -45 16 C-46.32 16.33 -47.64 16.66 -49 17 C-49.185625 18.2065625 -49.185625 18.2065625 -49.375 19.4375 C-49.58125 20.283125 -49.7875 21.12875 -50 22 C-50.66 22.33 -51.32 22.66 -52 23 C-52.33 22.34 -52.66 21.68 -53 21 C-54.32 21 -55.64 21 -57 21 C-54.73147903 12.75410631 -48.22520574 5.66185704 -41.05078125 1.02734375 C-28.10868087 -5.45603225 -13.13734627 -6.58900959 0 0 Z " fill="#313131" transform="translate(396,89)"></path>
<path d="M0 0 C0.53753906 0.48210937 1.07507813 0.96421875 1.62890625 1.4609375 C1.62890625 2.1209375 1.62890625 2.7809375 1.62890625 3.4609375 C2.21929687 3.70199219 2.8096875 3.94304687 3.41796875 4.19140625 C11.02974515 8.56212591 15.95435468 20.50198968 18.62890625 28.4609375 C18.47265625 30.78125 18.47265625 30.78125 17.62890625 32.4609375 C16.63890625 32.7909375 15.64890625 33.1209375 14.62890625 33.4609375 C14.62890625 31.1509375 14.62890625 28.8409375 14.62890625 26.4609375 C13.30890625 26.4609375 11.98890625 26.4609375 10.62890625 26.4609375 C10.62890625 25.8009375 10.62890625 25.1409375 10.62890625 24.4609375 C9.30890625 24.1309375 7.98890625 23.8009375 6.62890625 23.4609375 C6.53416016 22.625625 6.53416016 22.625625 6.4375 21.7734375 C5.14284675 13.70570355 1.0630866 9.40452066 -4.99609375 4.2109375 C-12.57138649 0.28300793 -20.88387397 -1.8733982 -29.37109375 -2.5390625 C-29.37109375 -3.1990625 -29.37109375 -3.8590625 -29.37109375 -4.5390625 C-31.02109375 -4.8690625 -32.67109375 -5.1990625 -34.37109375 -5.5390625 C-34.37109375 -5.8690625 -34.37109375 -6.1990625 -34.37109375 -6.5390625 C-22.44275946 -8.85006616 -10.25870193 -6.65886089 0 0 Z " fill="#474748" transform="translate(148.37109375,92.5390625)"></path>
<path d="M0 0 C-0.33 0.99 -0.66 1.98 -1 3 C1.64 3 4.28 3 7 3 C7 3.33 7 3.66 7 4 C6.154375 4.10957031 5.30875 4.21914062 4.4375 4.33203125 C-6.45278733 5.85419641 -14.45072336 7.5493172 -22 16 C-23.90389795 18.89964119 -25.52096884 21.8641695 -27 25 C-27.99 25 -28.98 25 -30 25 C-30.66 25.33 -31.32 25.66 -32 26 C-31.716573 18.06404411 -28.82111299 13.87467999 -23.328125 8.3046875 C-16.07416414 1.68295258 -9.83269248 -0.72536256 0 0 Z " fill="#2F2F2F" transform="translate(120,87)"></path>
<path d="M0 0 C2 1.25 2 1.25 4 3 C4 4.32 4 5.64 4 7 C4.66 7.33 5.32 7.66 6 8 C5.67 9.32 5.34 10.64 5 12 C4.01 12 3.02 12 2 12 C2 12.66 2 13.32 2 14 C1.34 14 0.68 14 0 14 C-0.28875 14.763125 -0.5775 15.52625 -0.875 16.3125 C-2 19 -2 19 -4 22 C-5.50033582 25.90353333 -5.50033582 25.90353333 -6 30 C-6.66 30 -7.32 30 -8 30 C-8.33 30.66 -8.66 31.32 -9 32 C-9.99 31.67 -10.98 31.34 -12 31 C-12.99 31.33 -13.98 31.66 -15 32 C-13.48593614 26.83101856 -11.1943662 22.3838146 -8.625 17.6875 C-5.49450819 11.88105353 -2.54736071 6.09151475 0 0 Z M4 1 C4.66 1 5.32 1 6 1 C6 1.66 6 2.32 6 3 C5.34 3 4.68 3 4 3 C4 2.34 4 1.68 4 1 Z " fill="#2A2A2A" transform="translate(322,141)"></path>
<path d="M0 0 C2.71484375 0.43359375 2.71484375 0.43359375 6 2 C7.96971578 4.81966686 9.23456505 7.89994968 10.5625 11.0625 C11.28982809 12.72143259 12.02029484 14.37899267 12.75390625 16.03515625 C13.11299072 16.8557251 13.4720752 17.67629395 13.84204102 18.52172852 C15.37888109 21.81088381 17.1672889 24.92460591 19.01953125 28.04492188 C20.40711562 30.81179827 20.51637569 32.9755138 20 36 C19.34 36.66 18.68 37.32 18 38 C13.06658725 29.80061288 8.63654162 21.44105568 4.5 12.8125 C4.05479004 11.89186768 3.60958008 10.97123535 3.15087891 10.02270508 C2.74015137 9.15540771 2.32942383 8.28811035 1.90625 7.39453125 C1.53822266 6.61956299 1.17019531 5.84459473 0.79101562 5.04614258 C0 3 0 3 0 0 Z " fill="#474747" transform="translate(175,147)"></path>
<path d="M0 0 C0 0.33 0 0.66 0 1 C-1.01320312 1.18175781 -2.02640625 1.36351563 -3.0703125 1.55078125 C-4.42196353 1.80421582 -5.77352119 2.05814865 -7.125 2.3125 C-7.79015625 2.43044922 -8.4553125 2.54839844 -9.140625 2.66992188 C-16.02974523 3.98695957 -20.61469626 6.66183865 -26 11 C-26.66 11 -27.32 11 -28 11 C-28.28617188 11.58265625 -28.57234375 12.1653125 -28.8671875 12.765625 C-29.5679306 14.14778035 -30.29722403 15.51634539 -31.0703125 16.859375 C-34.06112718 22.22068724 -35.16815708 26.75215608 -33.484375 32.875 C-32.87601085 35.5439524 -32.9049477 38.01560681 -32.9375 40.75 C-32.94652344 41.73484375 -32.95554687 42.7196875 -32.96484375 43.734375 C-32.97644531 44.48203125 -32.98804687 45.2296875 -33 46 C-32.34 46 -31.68 46 -31 46 C-30.9175 46.86625 -30.835 47.7325 -30.75 48.625 C-30.18738315 52.1383511 -30.18738315 52.1383511 -27.875 55.125 C-26 58 -26 58 -26.25 60.375 C-26.4975 60.91125 -26.745 61.4475 -27 62 C-35.60689119 51.26020574 -38.17326876 38.44061046 -37 25 C-35.20081727 16.5427638 -31.1852887 9.9300265 -24.2734375 4.69140625 C-16.54959174 -0.12277159 -8.78974504 -0.29083715 0 0 Z " fill="#C3C3C4" transform="translate(129,91)"></path>
<path d="M0 0 C0.99 0.33 1.98 0.66 3 1 C2.113125 1.5775 1.22625 2.155 0.3125 2.75 C-5.1255995 6.13424344 -5.1255995 6.13424344 -9 11 C-8.01 10.67 -7.02 10.34 -6 10 C-5.34 10.66 -4.68 11.32 -4 12 C-4.99 12.33 -5.98 12.66 -7 13 C-6.67 13.99 -6.34 14.98 -6 16 C-7.32 16.33 -8.64 16.66 -10 17 C-10.185625 18.2065625 -10.185625 18.2065625 -10.375 19.4375 C-10.58125 20.283125 -10.7875 21.12875 -11 22 C-11.66 22.33 -12.32 22.66 -13 23 C-13.33 22.34 -13.66 21.68 -14 21 C-15.32 21 -16.64 21 -18 21 C-15.48895128 11.87253718 -8.0808958 4.68691956 0 0 Z M2 6 C2.66 6.33 3.32 6.66 4 7 C3.67 8.65 3.34 10.3 3 12 C2.01 12.33 1.02 12.66 0 13 C-2.1875 11.5625 -2.1875 11.5625 -4 10 C-2.02 8.68 -0.04 7.36 2 6 Z " fill="#3D3D3D" transform="translate(357,89)"></path>
<path d="M0 0 C6.6703602 3.04294596 12.55662454 8.70092304 15.80859375 15.28125 C14.99609375 17.59375 14.99609375 17.59375 13.80859375 19.28125 C13.14859375 18.29125 12.48859375 17.30125 11.80859375 16.28125 C12.13859375 15.62125 12.46859375 14.96125 12.80859375 14.28125 C10.49859375 12.96125 8.18859375 11.64125 5.80859375 10.28125 C5.80859375 9.29125 5.80859375 8.30125 5.80859375 7.28125 C4.81859375 7.28125 3.82859375 7.28125 2.80859375 7.28125 C2.80859375 7.94125 2.80859375 8.60125 2.80859375 9.28125 C2.14859375 9.28125 1.48859375 9.28125 0.80859375 9.28125 C1.13859375 7.96125 1.46859375 6.64125 1.80859375 5.28125 C-2.24102622 4.31486342 -6.03343032 4.14728884 -10.19140625 4.15625 C-11.38765625 4.15367188 -12.58390625 4.15109375 -13.81640625 4.1484375 C-17.10792337 4.18534305 -17.10792337 4.18534305 -19.94140625 4.8515625 C-22.19140625 5.28125 -22.19140625 5.28125 -25.19140625 4.28125 C-19.91227172 2.19738111 -14.79602156 1.70214996 -9.19140625 1.28125 C-9.19140625 0.62125 -9.19140625 -0.03875 -9.19140625 -0.71875 C-5.94490107 -2.34200259 -3.34867279 -1.04980163 0 0 Z " fill="#C5C6C8" transform="translate(139.19140625,93.71875)"></path>
<path d="M0 0 C0.495 0.99 0.495 0.99 1 2 C-1.64 1.34 -4.28 0.68 -7 0 C-7.33 0.99 -7.66 1.98 -8 3 C-8.70125 2.79503906 -9.4025 2.59007813 -10.125 2.37890625 C-15.76853609 0.77632603 -21.15876543 -0.44894013 -27 -1 C-27 -1.66 -27 -2.32 -27 -3 C-28.65 -3.33 -30.3 -3.66 -32 -4 C-32 -4.33 -32 -4.66 -32 -5 C-20.72025445 -7.18534564 -10.22461845 -5.16053856 0 0 Z " fill="#7A7A7B" transform="translate(146,91)"></path>
<path d="M0 0 C3.9813236 1.32710787 4.33187507 2.98751373 6.15625 6.58007812 C6.5171875 7.31677734 6.878125 8.05347656 7.25 8.8125 C7.62640625 9.53759766 8.0028125 10.26269531 8.390625 11.00976562 C8.74125 11.71423828 9.091875 12.41871094 9.453125 13.14453125 C9.93507324 14.10903198 9.93507324 14.10903198 10.42675781 15.09301758 C11.14336584 17.47692954 10.98071504 18.7219443 10 21 C9.01 21.33 8.02 21.66 7 22 C7 19.69 7 17.38 7 15 C5.68 15 4.36 15 3 15 C3 14.34 3 13.68 3 13 C1.68 12.67 0.36 12.34 -1 12 C-1.2226746 10.56465159 -1.42761906 9.12654475 -1.625 7.6875 C-1.74101562 6.88699219 -1.85703125 6.08648437 -1.9765625 5.26171875 C-2 3 -2 3 0 0 Z " fill="#636364" transform="translate(156,104)"></path>
<path d="M0 0 C0.33 0.66 0.66 1.32 1 2 C0.67 2.66 0.34 3.32 0 4 C0.99 3.67 1.98 3.34 3 3 C3.78287497 9.10642479 1.10825151 13.00459579 -2 18 C-2.33 17.01 -2.66 16.02 -3 15 C-4.175625 16.485 -4.175625 16.485 -5.375 18 C-6.24125 18.99 -7.1075 19.98 -8 21 C-8.66 21 -9.32 21 -10 21 C-8.51991304 15.99886406 -6.3681664 11.67084403 -3.875 7.125 C-3.50246094 6.43664062 -3.12992187 5.74828125 -2.74609375 5.0390625 C-1.83500474 3.35705202 -0.91809685 1.67819564 0 0 Z " fill="#333333" transform="translate(338,110)"></path>
<path d="M0 0 C3.22685006 0.6003442 5.38466511 1.23164532 7.4765625 3.84375 C10.5273804 8.76787714 12.37017238 12.07724187 12 18 C11.34 18.66 10.68 19.32 10 20 C8.70144393 17.79547458 7.41111805 15.58676704 6.125 13.375 C5.57779297 12.44880859 5.57779297 12.44880859 5.01953125 11.50390625 C2.85138806 7.75893164 1.22235121 4.18172783 0 0 Z " fill="#3B3B3B" transform="translate(183,165)"></path>
<path d="M0 0 C-0.33667034 3.03003306 -0.98986539 3.99042843 -3.25 6.125 C-8.0220375 11.11394829 -10.88170039 17.19295888 -12 24 C-12.33 24 -12.66 24 -13 24 C-13.52402472 16.89655377 -12.84371472 12.0381264 -9 6 C-8.505 5.21625 -8.01 4.4325 -7.5 3.625 C-5.31105789 1.25364604 -3.25650543 0 0 0 Z " fill="#F5F5F5" transform="translate(107,100)"></path>
<path d="M0 0 C2.25 0.125 2.25 0.125 5 1 C8.22353026 4.85032781 9.52575506 8.02042811 10 13 C8.68 13.33 7.36 13.66 6 14 C2.59801074 9.95001278 0 5.36373351 0 0 Z " fill="#2D2D2D" transform="translate(204,206)"></path>
<path d="M0 0 C-0.33 0.99 -0.66 1.98 -1 3 C1.64 3 4.28 3 7 3 C7 3.33 7 3.66 7 4 C4.71059044 4.38854209 2.41835426 4.7604628 0.125 5.125 C-1.15117188 5.33382812 -2.42734375 5.54265625 -3.7421875 5.7578125 C-4.81726563 5.83773437 -5.89234375 5.91765625 -7 6 C-7.66 5.34 -8.32 4.68 -9 4 C-10.98 4.99 -12.96 5.98 -15 7 C-15.33 5.68 -15.66 4.36 -16 3 C-10.62669111 -0.39366878 -6.13053511 -0.32712342 0 0 Z M-8 1 C-7.67 1.66 -7.34 2.32 -7 3 C-6.67 2.34 -6.34 1.68 -6 1 C-6.66 1 -7.32 1 -8 1 Z " fill="#303032" transform="translate(120,87)"></path>
<path d="M0 0 C1.00109515 3.31070838 1.10356134 6.30084769 1.0625 9.75 C1.05347656 10.73484375 1.04445313 11.7196875 1.03515625 12.734375 C1.02355469 13.48203125 1.01195313 14.2296875 1 15 C1.66 15 2.32 15 3 15 C3.0825 15.86625 3.165 16.7325 3.25 17.625 C3.81261685 21.1383511 3.81261685 21.1383511 6.125 24.125 C8 27 8 27 7.75 29.375 C7.5025 29.91125 7.255 30.4475 7 31 C1.39041611 23.96757705 -2.29481243 14.99953655 -3 6 C-2.67 5.01 -2.34 4.02 -2 3 C-1.34 3 -0.68 3 0 3 C0 2.01 0 1.02 0 0 Z " fill="#A4A4A4" transform="translate(95,122)"></path>
<path d="M0 0 C0.66 0 1.32 0 2 0 C2.33 2.97 2.66 5.94 3 9 C0.75390625 9.71614583 -1.4921875 10.43229167 -3.73828125 11.1484375 C-6.22724528 11.98831811 -6.22724528 11.98831811 -9 14 C-7.71191248 8.96474879 -5.78504829 6.50116967 -2 3 C-1.34 2.01 -0.68 1.02 0 0 Z " fill="#232323" transform="translate(333,125)"></path>
<path d="M0 0 C0 0.99 0 1.98 0 3 C0.66 3 1.32 3 2 3 C2 3.66 2 4.32 2 5 C0.9790625 4.75636719 0.9790625 4.75636719 -0.0625 4.5078125 C-3.42276997 3.92691477 -6.59050215 3.86765194 -10 3.875 C-11.19625 3.87242188 -12.3925 3.86984375 -13.625 3.8671875 C-16.91651712 3.90409305 -16.91651712 3.90409305 -19.75 4.5703125 C-22 5 -22 5 -25 4 C-19.72086547 1.91613111 -14.60461531 1.42089996 -9 1 C-9 0.34 -9 -0.32 -9 -1 C-5.79937313 -2.60031344 -3.27728194 -1.03173691 0 0 Z " fill="#EEEEF0" transform="translate(139,94)"></path>
<path d="M0 0 C0.99 0.33 1.98 0.66 3 1 C2.01387981 4.55003269 1.08032022 5.93395893 -1.8125 8.3125 C-4.97385369 9.98615784 -6.50989741 10.4106003 -10 10 C-8.58986988 6.59218555 -7.03419698 5.05254501 -4 3 C-3.319375 2.4225 -2.63875 1.845 -1.9375 1.25 C-1.298125 0.8375 -0.65875 0.425 0 0 Z " fill="#0E0E0E" transform="translate(358,90)"></path>
<path d="M0 0 C0.75 1.625 0.75 1.625 1 4 C-0.875 7.0625 -0.875 7.0625 -3 10 C-4.04976964 13.14930893 -4.10131595 15.38814456 -4.0625 18.6875 C-4.05347656 19.68136719 -4.04445313 20.67523438 -4.03515625 21.69921875 C-4.02355469 22.45847656 -4.01195313 23.21773437 -4 24 C-4.66 24 -5.32 24 -6 24 C-6.33 24.99 -6.66 25.98 -7 27 C-7.63256139 16.93173128 -6.5051287 8.0521937 0 0 Z " fill="#BDBDBD" transform="translate(99,101)"></path>
<path d="M0 0 C3 1 3 1 4.75 3.1875 C6.28160315 6.63360708 6.05701626 8.42240652 5 12 C4.01 12.495 4.01 12.495 3 13 C2.29819469 11.5903653 1.61406042 10.17192359 0.9375 8.75 C0.55464844 7.96109375 0.17179688 7.1721875 -0.22265625 6.359375 C-1.08564091 3.74006478 -0.93045933 2.55144824 0 0 Z " fill="#151515" transform="translate(216,227)"></path>
<path d="M0 0 C1.65 0.33 3.3 0.66 5 1 C4.67 2.98 4.34 4.96 4 7 C1.92446352 7.5534764 0.15634036 8 -2 8 C-2 8.66 -2 9.32 -2 10 C-2.66 10 -3.32 10 -4 10 C-2.8905928 6.51329166 -1.73662334 3.22515763 0 0 Z " fill="#303030" transform="translate(306,173)"></path>
<path d="M0 0 C2.15377564 2.62198774 3.40072174 4.64404172 4 8 C3.01 8.33 2.02 8.66 1 9 C0.34 8.67 -0.32 8.34 -1 8 C-0.67 9.32 -0.34 10.64 0 12 C-1.32 11.67 -2.64 11.34 -4 11 C-3.67 10.34 -3.34 9.68 -3 9 C-3.27942455 7.32345271 -3.60828247 5.65391846 -4 4 C-3.01 3.67 -2.02 3.34 -1 3 C-0.67 2.01 -0.34 1.02 0 0 Z " fill="#676769" transform="translate(167,123)"></path>
<path d="M0 0 C0.66 0.33 1.32 0.66 2 1 C1.21625 1.99 0.4325 2.98 -0.375 4 C-3.17405963 7.87745088 -4.09939643 11.33323603 -5 16 C-6.32 16.33 -7.64 16.66 -9 17 C-7.21470545 10.23467327 -4.50062149 5.34539835 0 0 Z " fill="#969697" transform="translate(104,104)"></path>
<path d="M0 0 C1.66611905 -0.042721 3.33382885 -0.04063832 5 0 C6 1 6 1 6.0625 4.5625 C6.041875 5.696875 6.02125 6.83125 6 8 C4.125 7.75 4.125 7.75 2 7 C0.27898465 4.41847698 0 3.15081975 0 0 Z " fill="#383838" transform="translate(196,190)"></path>
<path d="M0 0 C2.475 0.99 2.475 0.99 5 2 C4.67 4.97 4.34 7.94 4 11 C1.11670417 7.744666 -0.63331529 5.40021656 -1 1 C-0.67 0.67 -0.34 0.34 0 0 Z " fill="#353537" transform="translate(170,135)"></path>
<path d="M0 0 C1.11375 0.495 1.11375 0.495 2.25 1 C5.13883312 2.22782871 5.13883312 2.22782871 9 2 C9.33 2.99 9.66 3.98 10 5 C9.01 6.485 9.01 6.485 8 8 C4.65001479 6.88333826 4.20659778 6.25305075 2.3125 3.4375 C1.87550781 2.79683594 1.43851563 2.15617187 0.98828125 1.49609375 C0.49908203 0.75552734 0.49908203 0.75552734 0 0 Z " fill="#464648" transform="translate(147,99)"></path>
<path d="M0 0 C2.64465038 3.1254959 3.84414715 6.08788267 5 10 C2.6568787 9.74438677 0.32156597 9.40729228 -2 9 C-2.33 8.34 -2.66 7.68 -3 7 C-2.34 7 -1.68 7 -1 7 C-0.67 4.69 -0.34 2.38 0 0 Z " fill="#646465" transform="translate(175,139)"></path>
<path d="M0 0 C0.99 0.495 0.99 0.495 2 1 C1.01 1.495 1.01 1.495 0 2 C0 1.34 0 0.68 0 0 Z M-1 2 C-0.34 2.99 0.32 3.98 1 5 C-0.28913487 5.67154933 -1.58140204 6.33708859 -2.875 7 C-3.59429687 7.37125 -4.31359375 7.7425 -5.0546875 8.125 C-7 9 -7 9 -9 9 C-9.33 8.01 -9.66 7.02 -10 6 C-9.34 5.01 -8.68 4.02 -8 3 C-6.66666667 3.66666667 -5.33333333 4.33333333 -4 5 C-3.67 4.34 -3.34 3.68 -3 3 C-2.34 2.67 -1.68 2.34 -1 2 Z " fill="#272727" transform="translate(112,88)"></path>
<path d="M0 0 C6.4203513 1.33252574 6.4203513 1.33252574 9.0625 4.375 C10 7 10 7 9.1875 9.3125 C8.795625 9.869375 8.40375 10.42625 8 11 C7.34 10.01 6.68 9.02 6 8 C6.33 7.34 6.66 6.68 7 6 C3.535 4.02 3.535 4.02 0 2 C0 1.34 0 0.68 0 0 Z " fill="#979799" transform="translate(145,102)"></path>
<path d="M0 0 C-0.38597015 2.79828356 -0.80136573 3.8205884 -2.9375 5.75 C-5 7 -5 7 -7 7 C-7.33 7.66 -7.66 8.32 -8 9 C-7.70100785 5.41209425 -7.23013399 4.21833224 -4.5625 1.6875 C-2 0 -2 0 0 0 Z " fill="#CCCCCC" transform="translate(108,95)"></path>
<path d="M0 0 C0.53625 0.226875 1.0725 0.45375 1.625 0.6875 C0.965 0.6875 0.305 0.6875 -0.375 0.6875 C-0.601875 1.30625 -0.82875 1.925 -1.0625 2.5625 C-2.75429835 5.30160209 -4.36744161 5.73774472 -7.375 6.6875 C-7.705 5.3675 -8.035 4.0475 -8.375 2.6875 C-2.95961538 -0.38942308 -2.95961538 -0.38942308 0 0 Z " fill="#747475" transform="translate(112.375,87.3125)"></path>
<path d="M0 0 C2.1519437 3.22791555 2.20086443 4.28400809 2 8 C1.01 8.33 0.02 8.66 -1 9 C-3.125 4.375 -3.125 4.375 -2 1 C-1.34 0.67 -0.68 0.34 0 0 Z " fill="#2B2B2B" transform="translate(230,288)"></path>
<path d="M0 0 C1.98 0.66 3.96 1.32 6 2 C5.6875 3.9375 5.6875 3.9375 5 6 C4.01 6.33 3.02 6.66 2 7 C0.5393715 4.35261084 0 3.10551666 0 0 Z " fill="#3E3E3E" transform="translate(175,147)"></path>
<path d="M0 0 C3 1 3 1 5 4 C4.67 4.99 4.34 5.98 4 7 C4 6.34 4 5.68 4 5 C2.35 5.33 0.7 5.66 -1 6 C-1 2 -1 2 0 0 Z " fill="#6D6D6F" transform="translate(156,104)"></path>
<path d="M0 0 C2 1 2 1 3.125 4.0625 C3.41375 5.031875 3.7025 6.00125 4 7 C1.36 7 -1.28 7 -4 7 C-3.34 5.35 -2.68 3.7 -2 2 C-1.34 2 -0.68 2 0 2 C0 1.34 0 0.68 0 0 Z " fill="#434343" transform="translate(213,216)"></path>
<path d="M0 0 C1.32 0.33 2.64 0.66 4 1 C3.34 2.98 2.68 4.96 2 7 C0.66666667 6.33333333 -0.66666667 5.66666667 -2 5 C-1.34 3.35 -0.68 1.7 0 0 Z " fill="#0A0A0A" transform="translate(340,109)"></path>
<path d="M0 0 C0.66 0 1.32 0 2 0 C3.18414294 3.55242882 2.69535532 4.69830562 1.5625 8.1875 C1.27503906 9.08855469 0.98757812 9.98960938 0.69140625 10.91796875 C0.46324219 11.60503906 0.23507813 12.29210937 0 13 C-0.33 13 -0.66 13 -1 13 C-1.02708567 11.39592672 -1.04643483 9.7917215 -1.0625 8.1875 C-1.07410156 7.29417969 -1.08570312 6.40085937 -1.09765625 5.48046875 C-1 3 -1 3 0 0 Z " fill="#DDDDDD" transform="translate(95,111)"></path>
<path d="M0 0 C1.32 0.66 2.64 1.32 4 2 C3.34 3.32 2.68 4.64 2 6 C0.35 4.68 -1.3 3.36 -3 2 C-2.01 1.34 -1.02 0.68 0 0 Z " fill="#585859" transform="translate(150,96)"></path>
<path d="M0 0 C0 0.33 0 0.66 0 1 C-0.88751953 1.09087891 -0.88751953 1.09087891 -1.79296875 1.18359375 C-6.86198552 1.72079394 -6.86198552 1.72079394 -11.875 2.625 C-14 3 -14 3 -17 2 C-11.35600642 -0.44064587 -6.02248522 -0.19289099 0 0 Z " fill="#A6A7A9" transform="translate(131,96)"></path>
<path d="M0 0 C1.65 0.33 3.3 0.66 5 1 C4.34 2.32 3.68 3.64 3 5 C0.69 4.67 -1.62 4.34 -4 4 C-3 2 -3 2 0 1 C0 0.67 0 0.34 0 0 Z " fill="#3F3F41" transform="translate(133,88)"></path>
<path d="M0 0 C0.99 0.99 1.98 1.98 3 3 C1.35 4.65 -0.3 6.3 -2 8 C-2.6875 6.25 -2.6875 6.25 -3 4 C-1.5625 1.75 -1.5625 1.75 0 0 Z " fill="#EBEBEB" transform="translate(99,105)"></path>
<path d="M0 0 C2.0625 1.6875 2.0625 1.6875 4 4 C3.75 6.75 3.75 6.75 3 9 C0.90250005 6.64031256 0.03094296 5.45383006 -0.1875 2.25 C-0.125625 1.5075 -0.06375 0.765 0 0 Z " fill="#878788" transform="translate(99,144)"></path>
<path d="M0 0 C3 3.75 3 3.75 3 6 C0.03 5.505 0.03 5.505 -3 5 C-2.67 4.01 -2.34 3.02 -2 2 C-1.34 2 -0.68 2 0 2 C0 1.34 0 0.68 0 0 Z " fill="#5F5F61" transform="translate(171,131)"></path>
<path d="M0 0 C0.66 0.66 1.32 1.32 2 2 C1.625 4.625 1.625 4.625 1 7 C0.34 6.67 -0.32 6.34 -1 6 C-1.625 3.4375 -1.625 3.4375 -2 1 C-1.34 0.67 -0.68 0.34 0 0 Z " fill="#363638" transform="translate(162,117)"></path>
<path d="M0 0 C2.62187494 1.04874998 3.79371361 1.64931313 5.25 4.125 C5.4975 4.74375 5.745 5.3625 6 6 C3.5625 5.25 3.5625 5.25 1 4 C0.1875 1.875 0.1875 1.875 0 0 Z " fill="#D1D1D3" transform="translate(144,98)"></path>
<path d="M0 0 C0.66 0.33 1.32 0.66 2 1 C1.67 2.65 1.34 4.3 1 6 C0.01 6 -0.98 6 -2 6 C-2 5.34 -2 4.68 -2 4 C-2.66 3.67 -3.32 3.34 -4 3 C-2.68 2.01 -1.36 1.02 0 0 Z " fill="#686868" transform="translate(102,91)"></path>
<path d="M0 0 C1.32 0 2.64 0 4 0 C4.33 2.97 4.66 5.94 5 9 C2.67527795 6.14693203 1.2491742 3.45925163 0 0 Z " fill="#9A9A9B" transform="translate(94,137)"></path>
<path d="M0 0 C0.66 0.33 1.32 0.66 2 1 C2 2.32 2 3.64 2 5 C1.01 5.33 0.02 5.66 -1 6 C-1.66 4.35 -2.32 2.7 -3 1 C-2.01 0.67 -1.02 0.34 0 0 Z " fill="#3E3E40" transform="translate(158,109)"></path>
</svg>