<svg width="32" height="32" viewBox="0 0 256 256" fill="none" xmlns="http://www.w3.org/2000/svg">
<g clip-path="url(#clip0_303_2)">
<path d="M56.2493 23.9999L128 173.041L199.751 23.9999L227 40.243L139.696 232H116.304L29 40.243L56.2493 23.9999Z" fill="black"/>
<path d="M128 173.041L199.751 23.9999L227 40.243L139.696 232H116.304L128 173.041Z" fill="black"/>
<path d="M118.8 226.4L28.1 36.4C27.5 35.5 27.9 34.4 28.8 33.9L55.5 18.1C56.4 17.6 57.5 18 58 18.9L128 164.2L198 18.9C198.5 18 199.6 17.6 200.5 18.1L227.2 33.9C228.1 34.4 228.5 35.5 227.9 36.4L137.2 226.4C136.4 227.6 134.7 228.1 133.2 227.6L130.8 226.8C129.3 226.3 128.8 224.6 129.6 223.2L130.4 221.9L118.8 226.4Z" fill="black"/>
<path d="M139.696 232L227 40.243L199.751 23.9999L128 173.041L116.304 232H139.696Z" fill="black"/>
<path d="M130.4,221.9C131.2,220.5 130.7,218.8 129.2,218.3L128,217.9L126.8,218.3C125.3,218.8 124.8,220.5 125.6,221.9L130.4,221.9Z" fill="black"/>
</g>
<defs>
<clipPath id="clip0_303_2">
<rect width="256" height="256" fill="white"/>
</clipPath>
</defs>
</svg>
