<?xml version="1.0" encoding="UTF-8"?>
<svg version="1.1" xmlns="http://www.w3.org/2000/svg" width="1024" height="1024" viewBox="0 0 1024 1024">
<path d="M0 0 C337.92 0 675.84 0 1024 0 C1024 337.92 1024 675.84 1024 1024 C686.08 1024 348.16 1024 0 1024 C0 686.08 0 348.16 0 0 Z " fill="#FEFEFE" transform="translate(0,0)"/>
<path d="M0 0 C3.11375929 2.6134388 6.04699518 5.32866585 8.8125 8.3125 C9.35519531 8.88484375 9.89789062 9.4571875 10.45703125 10.046875 C23.29869903 24.03561985 28.79421905 40.53328622 28.44165039 59.36694336 C27.52205463 80.08817334 18.59585033 97.88110592 9.8125 116.3125 C9.48828064 116.99427307 9.16406128 117.67604614 8.83001709 118.378479 C-1.77914743 140.66209523 -12.84749891 162.72450688 -23.87242508 184.80439377 C-24.86442054 186.79130989 -25.85591984 188.77847304 -26.84738159 190.76565552 C-32.97137913 203.03604386 -39.09819953 215.2951649 -45.6184082 227.36132812 C-47.8774391 231.61014802 -49.91420854 235.94795905 -51.9375 240.3125 C-57.35307117 251.80482288 -63.155908 263.086289 -68.97735596 274.37658691 C-76.29124548 288.56432937 -83.47783425 302.81090733 -90.56835938 317.11157227 C-94.30746131 324.63966891 -98.11722418 332.12039212 -102.0546875 339.546875 C-107.61733979 350.04368316 -112.90611383 360.67211456 -118.1875 371.3125 C-123.83812549 382.69679027 -129.53281649 394.04431192 -135.48852539 405.27246094 C-140.21427684 414.20604766 -144.69748626 423.25880824 -149.1875 432.3125 C-154.52016692 443.06532291 -159.91949226 453.76897515 -165.53967285 464.37475586 C-169.72398093 472.28754532 -173.71631095 480.29118676 -177.6875 488.3125 C-182.42209246 497.87579419 -187.24713391 507.37845817 -192.23832703 516.81065369 C-197.59427004 526.9463507 -202.79240642 537.16253628 -208 547.375 C-209.06802392 549.46672056 -210.13605787 551.55843601 -211.20410156 553.65014648 C-216.67101397 564.36473693 -222.09635052 575.09720264 -227.4375 585.875 C-244.48242519 620.12380992 -244.48242519 620.12380992 -253.1875 629.3125 C-254.00476563 630.21871094 -254.82203125 631.12492188 -255.6640625 632.05859375 C-271.08845955 648.4386811 -292.89787347 658.01681311 -315.29589844 658.71313477 C-338.00688024 659.00267869 -357.97101171 649.95086862 -374.30078125 634.28515625 C-390.13035538 617.12182643 -394.22019694 597.80019895 -393.37402344 575.24023438 C-391.84661329 551.26549297 -378.19426333 528.20144735 -367.15722656 507.49658203 C-361.73248084 497.30279107 -356.49919688 487.01945921 -351.34375 476.6875 C-350.82065058 475.63918345 -350.82065058 475.63918345 -350.28698349 474.5696888 C-347.75097785 469.48537475 -345.2188609 464.39912777 -342.6875 459.3125 C-339.80464094 453.5195564 -336.92024488 447.7273865 -334.03125 441.9375 C-333.68088684 441.23525299 -333.33052368 440.53300598 -332.96954346 439.80947876 C-329.13136052 432.12230329 -325.26302337 424.45643328 -321.21875 416.875 C-316.70330441 408.40884274 -312.40848138 399.83500148 -308.125 391.25 C-307.76433945 390.52723877 -307.40367889 389.80447754 -307.03208923 389.05981445 C-304.41438762 383.81212241 -301.80055965 378.56250467 -299.1875 373.3125 C-296.21088414 367.33205973 -293.23272801 361.35239462 -290.25 355.375 C-289.89205353 354.65758636 -289.53410706 353.94017273 -289.16531372 353.20101929 C-284.31067476 343.47832732 -279.35868155 333.81687928 -274.25390625 324.22265625 C-271.11366698 318.31170286 -268.15404207 312.31217908 -265.1875 306.3125 C-261.33667579 298.55740248 -257.45351048 290.82594747 -253.375 283.1875 C-247.90434138 272.93466702 -242.76133194 262.51700214 -237.60229492 252.10498047 C-233.96077295 244.76984482 -230.24418488 237.48447502 -226.40625 230.25 C-220.46444761 219.03859445 -214.83161758 207.67584699 -209.1875 196.3125 C-207.14835489 192.20707287 -205.10624885 188.10313694 -203.0625 184 C-202.39951904 182.66159058 -202.39951904 182.66159058 -201.72314453 181.29614258 C-199.19748029 176.22616948 -196.60415875 171.19811149 -193.94630337 166.196558 C-187.31284661 153.70141933 -181.0220084 141.03928743 -174.73794365 128.36629105 C-172.70118489 124.25949558 -170.65921577 120.15530393 -168.6162262 116.05160522 C-167.91020377 114.63330324 -167.20418247 113.2150007 -166.49816227 111.79669762 C-166.14523393 111.08772481 -165.79230559 110.378752 -165.42868245 109.64829516 C-160.69062855 100.12952827 -155.9564787 90.608847 -151.23364258 81.08251953 C-148.02221497 74.60492329 -144.80350663 68.1310007 -141.57666928 61.66106641 C-139.87928464 58.257009 -138.18549928 54.85127351 -136.50076103 51.44093704 C-122.92047463 23.96114243 -109.12103373 -0.01030377 -79.1875 -11.6875 C-78.07375 -12.12320313 -76.96 -12.55890625 -75.8125 -13.0078125 C-50.65416904 -21.18427006 -20.97700809 -15.88011521 0 0 Z " fill="#0E0E0E" transform="translate(821.1875,191.6875)"/>
<path d="M0 0 C1.13598633 0.00757324 2.27197266 0.01514648 3.44238281 0.02294922 C12.62182609 0.20183737 20.58594108 1.36099235 29.25 4.4375 C30.4565625 4.86160156 31.663125 5.28570312 32.90625 5.72265625 C53.50198386 13.75946979 66.79928831 29.64344312 77 48.625 C77.51240234 49.57133301 78.02480469 50.51766602 78.55273438 51.49267578 C83.14141508 60.05905973 87.33026151 68.79572278 91.46875 77.5859375 C94.71743382 84.46862489 98.13365968 91.2648187 101.57617188 98.05224609 C104.43095313 103.709587 107.19521295 109.40339412 109.91619062 115.12613678 C115.73199667 127.35308815 121.71029393 139.49090866 127.77929688 151.59375 C128.77801783 153.58926503 129.77655213 155.5848735 130.7749176 157.58056641 C132.89945073 161.82650894 135.02521698 166.07183078 137.1519928 170.31665039 C140.52705633 177.05306594 143.89893243 183.79107392 147.27038574 190.52929688 C152.00641725 199.99406606 156.74356279 209.45827678 161.48193359 218.921875 C161.78086098 219.51890197 162.07978837 220.11592894 162.38777417 220.73104763 C164.50847535 224.96655216 166.62923129 229.20202928 168.75 233.4375 C171.17272661 238.27602274 173.59542838 243.11455791 176.01806641 247.953125 C176.31661756 248.54939918 176.61516871 249.14567335 176.92276686 249.76001644 C181.93396928 259.76864689 186.94352949 269.77809866 191.95200586 279.78809357 C195.29145483 286.46206313 198.63284041 293.13505809 201.97580719 299.80726624 C204.06772816 303.98355593 206.15792435 308.1607072 208.24769402 312.33807373 C209.20344712 314.24773597 210.15987964 316.15705838 211.11711311 318.065979 C216.71706428 329.23450144 222.20948272 340.44717136 227.56595659 351.73478699 C229.89028161 356.62793862 232.2584968 361.48298789 234.765625 366.28515625 C235.23097656 367.17654297 235.69632812 368.06792969 236.17578125 368.98632812 C237.09617338 370.73344416 238.02661375 372.47528866 238.96484375 374.21289062 C242.23743964 380.53772136 242.23743964 380.53772136 242.29296875 384.515625 C240.86541501 388.51491412 239.17377023 392.30987492 237.3125 396.125 C236.97154297 396.84494141 236.63058594 397.56488281 236.27929688 398.30664062 C234.01146033 403.02833171 231.60616448 407.67025729 229.14647293 412.29386711 C222.32095457 425.14270721 215.81867907 438.15228624 209.31790447 451.16736555 C207.68306296 454.43962911 206.04622558 457.71089426 204.409729 460.98233032 C201.66852856 466.46292744 198.92898771 471.94435162 196.19042969 477.42626953 C193.04243121 483.72772311 189.89153504 490.02772138 186.73915839 496.32698572 C184.00789046 501.78495975 181.27820586 507.24372352 178.54980493 512.70313132 C176.93085292 515.94257909 175.31139082 519.18176879 173.69048309 522.42023849 C171.88477048 526.02819429 170.08238213 529.63780135 168.28027344 533.24755859 C167.49463013 534.81580887 167.49463013 534.81580887 166.69311523 536.41574097 C163.06505975 543.69236846 159.62135596 551.03858735 156.25 558.4375 C155.59 558.4375 154.93 558.4375 154.25 558.4375 C153.68603516 557.27404053 153.12207031 556.11058105 152.54101562 554.91186523 C150.4117933 550.5212744 148.27869673 546.13257468 146.14453125 541.74438477 C145.22813833 539.85881649 144.31274318 537.9727629 143.3984375 536.08618164 C138.54745174 526.07836397 133.63537433 516.13357842 128.33655548 506.35482597 C126.3230441 502.60259019 124.40558954 498.80791582 122.51184082 494.99414062 C121.80508706 493.57575597 121.09830423 492.15738581 120.39149475 490.73902893 C120.03488581 490.02249712 119.67827686 489.30596531 119.31086159 488.56772041 C117.65895055 485.25066694 116.00064409 481.93681928 114.34265137 478.62280273 C113.67175384 477.28109442 113.00089172 475.93936839 112.33006287 474.59762573 C111.98729246 473.91208492 111.64452206 473.22654411 111.29136467 472.52022934 C45.16993713 340.27737427 45.16993713 340.27737427 44.15426183 338.24590522 C43.4934639 336.92438787 42.83254093 335.60293303 42.17148852 334.28154296 C40.53483205 331.00961838 38.90048294 327.73657685 37.27045059 324.46134663 C32.88923464 315.66500958 28.42709755 306.91351673 23.91590357 298.18319476 C14.6345968 280.21283415 5.51528119 262.16366465 -3.546875 244.08203125 C-4.30375801 242.57234064 -5.0606578 241.06265844 -5.81757355 239.55298424 C-9.37126977 232.46443019 -12.92314582 225.37496789 -16.47270179 218.28433973 C-20.49422286 210.25108718 -24.52238887 202.22121192 -28.55608821 194.19406778 C-31.7310032 187.87478573 -34.89947468 181.55229738 -38.06348729 175.22754973 C-39.92874135 171.49934156 -41.7963618 167.77237653 -43.6710434 164.0488987 C-50.92446925 149.6364752 -58.04213091 135.17321015 -64.60272264 120.42969072 C-65.19698204 119.09535274 -65.79500928 117.76268423 -66.39740324 116.43199885 C-72.37005791 103.18986036 -76.53660089 89.73825473 -76.375 75.0625 C-76.36734619 73.99741211 -76.35969238 72.93232422 -76.35180664 71.83496094 C-76.0766067 61.909864 -73.85218931 53.43093609 -69.75 44.4375 C-69.20859375 43.24769531 -68.6671875 42.05789062 -68.109375 40.83203125 C-60.25479879 25.17793427 -48.87420723 14.59310212 -33.25 7.0625 C-32.25516602 6.57970581 -32.25516602 6.57970581 -31.24023438 6.0871582 C-21.13210483 1.47135653 -11.04989062 -0.10418185 0 0 Z " fill="#434444" transform="translate(251.75,176.5625)"/>
<path d="M0 0 C2.76083836 3.37887653 4.64515657 7.0655347 6.54496765 10.96592712 C7.26035489 12.41546562 7.97596922 13.86489205 8.69177818 15.31422234 C9.06831402 16.07975953 9.44484985 16.84529672 9.83279586 17.63403201 C11.81581414 21.65368686 13.82766584 25.65886773 15.83625793 29.66578674 C16.71534666 31.42218806 17.59430496 33.17865466 18.47314453 34.93518066 C18.92837997 35.8448761 19.38361542 36.75457153 19.85264587 37.6918335 C30.1887225 58.3465348 40.52250997 79.00238087 50.85497676 99.65888819 C52.38092268 102.70953027 53.90688647 105.76016341 55.43286133 108.81079102 C55.73647584 109.41775772 56.04009035 110.02472443 56.3529053 110.65008407 C61.26487476 120.46967491 66.17825985 130.28855677 71.09216575 140.1071787 C76.16660333 150.24664478 81.23945031 160.3869053 86.3109619 170.52783531 C89.14664518 176.19790899 91.98300846 181.86763999 94.82111549 187.53650093 C97.49464701 192.87669106 100.16622447 198.21785447 102.83641243 203.55971718 C103.80669143 205.50000405 104.7776358 207.43995839 105.74936295 209.37952042 C110.95162647 219.76425895 116.08200955 230.1800416 121.10429382 240.65318298 C121.57945649 241.64230385 122.05461916 242.63142472 122.54418069 243.65051895 C122.9820856 244.56771979 123.41999052 245.48492063 123.87116528 246.42991543 C124.25886473 247.24124949 124.64656418 248.05258355 125.0460121 248.88850349 C126 251 126 251 127 254 C124 253 124 253 122.83203125 251.2578125 C122.49558594 250.55398438 122.15914063 249.85015625 121.8125 249.125 C121.46832031 248.42632813 121.12414062 247.72765625 120.76953125 247.0078125 C120 245 120 245 120 242 C119.34 241.67 118.68 241.34 118 241 C116.89094879 238.88820561 115.860073 236.73489529 114.875 234.5625 C114.06675781 232.80099609 114.06675781 232.80099609 113.2421875 231.00390625 C112 228 112 228 112 226 C111.34 226 110.68 226 110 226 C108.85026161 223.418342 107.70509641 220.83481693 106.5625 218.25 C106.23701172 217.52039063 105.91152344 216.79078125 105.57617188 216.0390625 C105.26357422 215.33007812 104.95097656 214.62109375 104.62890625 213.890625 C104.34088135 213.24125977 104.05285645 212.59189453 103.75610352 211.92285156 C102.98791843 209.96927529 102.46357207 208.04528795 102 206 C101.34 206 100.68 206 100 206 C99.74605469 205.31292969 99.49210937 204.62585938 99.23046875 203.91796875 C98.88628906 203.01691406 98.54210937 202.11585938 98.1875 201.1875 C97.85105469 200.29417969 97.51460938 199.40085937 97.16796875 198.48046875 C96.01557695 196.03308148 94.88737269 194.86702366 93 193 C92.2265625 191.0546875 92.2265625 191.0546875 91.625 188.875 C90.28198807 184.4868701 88.33765471 180.7771393 85.98828125 176.84765625 C85 175 85 175 85 173 C84.34 172.67 83.68 172.34 83 172 C82.0078125 170.23046875 82.0078125 170.23046875 81 168 C80.50113281 166.91138672 80.50113281 166.91138672 79.9921875 165.80078125 C79.62351562 164.97964844 79.25484375 164.15851563 78.875 163.3125 C77.25713032 159.72209251 75.60138228 156.1542234 73.89453125 152.60546875 C73.53053223 151.84516357 73.1665332 151.0848584 72.79150391 150.30151367 C72.0628396 148.78246936 71.32953009 147.26564347 70.59130859 145.7512207 C68 140.33410439 68 140.33410439 68 137 C67.34 137 66.68 137 66 137 C65.62488281 136.17757812 65.24976563 135.35515625 64.86328125 134.5078125 C59.54062024 122.42718443 59.54062024 122.42718443 53 111 C52.25721506 109.32737844 51.55123889 107.63811557 50.875 105.9375 C50.52179688 105.05964844 50.16859375 104.18179688 49.8046875 103.27734375 C49 101 49 101 49 99 C48.34 99 47.68 99 47 99 C46.73445313 98.39671875 46.46890625 97.7934375 46.1953125 97.171875 C45.84210938 96.37265625 45.48890625 95.5734375 45.125 94.75 C44.77695312 93.96109375 44.42890625 93.1721875 44.0703125 92.359375 C43.42462251 90.93602918 42.76029014 89.5206504 42.06123352 88.1227417 C40.99365469 85.98730774 39.96775682 83.83632877 38.94995117 81.67675781 C33.55947528 70.29129274 28.02774451 58.98532772 22.36328125 47.734375 C22.0356567 47.08305099 21.70803215 46.43172699 21.37047958 45.76066589 C18.32359631 39.70351865 15.27288515 33.64831486 12.21313477 27.59765625 C10.51602601 24.24098182 8.82471945 20.88143899 7.13713646 17.51996613 C6.50021959 16.25416165 5.86108689 14.9894695 5.21965981 13.72594452 C4.3341024 11.981186 3.45652051 10.23238631 2.5793457 8.48339844 C2.07957718 7.49353943 1.57980865 6.50368042 1.06489563 5.48382568 C0 3 0 3 0 0 Z " fill="#101011" transform="translate(357,285)"/>
<path d="M0 0 C0.99515625 0.44601563 1.9903125 0.89203125 3.015625 1.3515625 C11.25925485 5.47337742 18.60895966 11.37770491 25 18 C24.67 18.66 24.34 19.32 24 20 C23.67 20 23.34 20 23 20 C23.495 20.99 23.495 20.99 24 22 C21.61272298 20.87555793 19.41911965 19.63554183 17.1796875 18.23046875 C-0.54805398 7.27112029 -20.67281896 3.7984707 -41.3203125 7.69921875 C-48.79730398 9.64652312 -55.4859502 12.8782324 -62 17 C-62.71800781 17.45117188 -63.43601563 17.90234375 -64.17578125 18.3671875 C-76.06733927 26.54119049 -83.68584647 40.21202162 -86.875 54.0625 C-88.09479589 60.67035133 -88.67689877 67.29286406 -89 74 C-89.66 74 -90.32 74 -91 74 C-91.33 75.65 -91.66 77.3 -92 79 C-96.62779438 74.37220562 -95.27838362 66.67828822 -95.3125 60.5625 C-95.3125 50.95830787 -95.15847805 42.79588195 -91 34 C-90.72091797 33.39655762 -90.44183594 32.79311523 -90.15429688 32.17138672 C-82.31505152 15.49842698 -71.08643697 4.7374354 -53.875 -2 C-37.16522553 -8.00051752 -16.19804618 -7.32399696 0 0 Z " fill="#F0F0F0" transform="translate(283,192)"/>
<path d="M0 0 C-0.96679688 0.4846875 -1.93359375 0.969375 -2.9296875 1.46875 C-18.32945683 9.3311966 -28.28586345 17.82789503 -35.8125 33.625 C-36.10278076 34.2341626 -36.39306152 34.8433252 -36.69213867 35.47094727 C-40.78053802 44.45480975 -41.31624061 52.26263093 -41.25 62 C-41.25773438 63.13695312 -41.26546875 64.27390625 -41.2734375 65.4453125 C-41.26214616 70.311879 -41.21757198 74.85087464 -39.921875 79.5625 C-39.02182223 82.91862897 -39.02120962 83.86649944 -40 87 C-47.14314158 76.28528762 -45.52612832 59.18987633 -44 47 C-43.68831062 45.66144159 -43.36106906 44.32609126 -43 43 C-42.34 43 -41.68 43 -41 43 C-40.8453125 41.2365625 -40.8453125 41.2365625 -40.6875 39.4375 C-40.17085042 35.17514097 -38.8491639 31.85912466 -37 28 C-36.34 28 -35.68 28 -35 28 C-34.67 26.35 -34.34 24.7 -34 23 C-33.34 23 -32.68 23 -32 23 C-31.87625 22.360625 -31.7525 21.72125 -31.625 21.0625 C-31.41875 20.381875 -31.2125 19.70125 -31 19 C-30.34 18.67 -29.68 18.34 -29 18 C-28.67 17.01 -28.34 16.02 -28 15 C-26.22265625 13.5 -26.22265625 13.5 -24.0625 12 C-21.2730396 10.05598404 -19.93215117 8.89822675 -18 6 C-16.16015625 4.83203125 -16.16015625 4.83203125 -14.0625 3.8125 C-13.37285156 3.46832031 -12.68320313 3.12414062 -11.97265625 2.76953125 C-10 2 -10 2 -7 2 C-7 1.34 -7 0.68 -7 0 C-3.98968256 -0.93423645 -3.13349732 -1.04449911 0 0 Z " fill="#0E0E0E" transform="translate(230,190)"/>
<path d="M0 0 C-3.92393376 3.68611959 -6.68364878 4.52532578 -12 5 C-15.0394941 5.89197275 -18.02052865 6.92576883 -21 8 C-18.38721273 4.84056574 -15.40618207 3.75315633 -11.625 2.3125 C-10.50351563 1.87550781 -9.38203125 1.43851563 -8.2265625 0.98828125 C-5.25041785 0.07670183 -3.07855171 -0.21330789 0 0 Z " fill="#171718" transform="translate(236,179)"/>
<path d="M0 0 C1.16348868 3.49046605 1.16834776 6.32277017 1.1875 10 C1.20167969 11.2375 1.21585938 12.475 1.23046875 13.75 C1 17 1 17 -1 20 C-1.36372387 17.75152519 -1.71564096 15.50113812 -2.0625 13.25 C-2.25972656 11.99703125 -2.45695313 10.7440625 -2.66015625 9.453125 C-2.95246051 6.48304492 -3.11115174 4.71755968 -2 2 C-1.34 1.34 -0.68 0.68 0 0 Z " fill="#AEAEAF" transform="translate(191,237)"/>
</svg>
